<svg xmlns="http://www.w3.org/2000/svg" viewBox="0 0 431.07 445.03"><g id="freepik--background-complete--inject-130"><path d="M236,108.38c-4.78,0-123.93-.83-157.59-.83-2.35,0,.62-4.08,1.92-4.36,4.14-.91,8.45-1,12.66-1.39a41.56,41.56,0,0,0,12.06-3c3.31-1.4,6.61-3,10.2-3.58,6.93-1.08,13,2.67,19.52,4.33a14.74,14.74,0,0,0,11.82-1.61c3-1.81,5.74-4,8.88-5.56a48.75,48.75,0,0,1,38.94-1.79,45.94,45.94,0,0,1,8.52,4.36c3.17,2.09,5.91,4.75,9.1,6.81,7.06,4.57,15.78,3.08,23.48,5.7C235.91,107.58,236.39,108.38,236,108.38Z" transform="translate(-34.46 -32.41)" style="fill:#ebebeb"></path><path d="M329.7,54.36c-6.31,0-112.55.7-119.22.49-.48,0-.74-.72-.26-1,4.21-2.09,9-1.67,13.35-3.14,2.58-.87,4.16-2.55,5.94-4.48A12.33,12.33,0,0,1,235,42.67a11.71,11.71,0,0,1,6-.19c2.16.51,4,1.75,6.08,2.53,5.11,1.92,10.07.09,13.71-3.69,3-3.11,6-6,10-7.72a13.33,13.33,0,0,1,10.65-.15c3.89,1.77,6.57,5.32,10.23,7.45,4.33,2.54,9.52,1.94,14.31,2.7s8.48,4.8,12.68,7.13a9,9,0,0,0,4.58,1.42c.94,0,1.86-.28,2.79-.4,1.45-.18,2.82-.13,3.79,1.07C330.16,53.12,330.11,54.36,329.7,54.36Z" transform="translate(-34.46 -32.41)" style="fill:#ebebeb"></path><path d="M439.63,273.41c-6.32,0-112.55.7-119.22.49-.48,0-.74-.72-.26-1,4.21-2.08,9-1.66,13.35-3.13,2.58-.87,4.16-2.55,5.94-4.48a12.28,12.28,0,0,1,5.53-3.61,11.6,11.6,0,0,1,6-.19c2.15.51,4,1.75,6.08,2.52,5.11,1.93,10.06.1,13.71-3.68,3-3.11,6-6.05,10-7.72a13.31,13.31,0,0,1,10.64-.15c3.9,1.77,6.57,5.32,10.23,7.45,4.34,2.54,9.53,1.94,14.32,2.7s8.48,4.8,12.68,7.13a9,9,0,0,0,4.58,1.42c.94,0,1.86-.28,2.79-.4,1.45-.18,2.82-.13,3.79,1.07C440.09,272.17,440,273.41,439.63,273.41Z" transform="translate(-34.46 -32.41)" style="fill:#ebebeb"></path><path d="M452.32,102c-4.61,0-82.17.51-87.05.36-.35,0-.53-.53-.19-.7,3.08-1.52,6.56-1.22,9.76-2.29a10.42,10.42,0,0,0,4.33-3.27,9.05,9.05,0,0,1,4-2.64,8.49,8.49,0,0,1,4.39-.13A35.79,35.79,0,0,1,392,95.19c3.73,1.41,7.35.07,10-2.69,2.19-2.27,4.35-4.41,7.33-5.64a9.77,9.77,0,0,1,7.77-.11c2.85,1.29,4.8,3.89,7.47,5.44,3.17,1.86,7,1.42,10.46,2s6.18,3.5,9.25,5.2a6.56,6.56,0,0,0,3.35,1,20.2,20.2,0,0,0,2-.28,2.79,2.79,0,0,1,2.77.78C452.65,101.11,452.62,102,452.32,102Z" transform="translate(-34.46 -32.41)" style="fill:#ebebeb"></path><path d="M259.85,152.09c-4.61,0-82.17.51-87.05.36-.35,0-.53-.53-.19-.7,3.08-1.52,6.56-1.21,9.76-2.29a10.34,10.34,0,0,0,4.33-3.27,9.05,9.05,0,0,1,4-2.64,8.49,8.49,0,0,1,4.39-.13,35.79,35.79,0,0,1,4.44,1.84c3.73,1.41,7.35.07,10-2.69,2.19-2.27,4.35-4.41,7.33-5.64a9.72,9.72,0,0,1,7.77-.1c2.85,1.28,4.8,3.88,7.47,5.44,3.17,1.85,7,1.41,10.46,2s6.18,3.5,9.25,5.2a6.56,6.56,0,0,0,3.34,1c.69,0,1.36-.21,2-.29A2.79,2.79,0,0,1,260,151C260.18,151.18,260.15,152.09,259.85,152.09Z" transform="translate(-34.46 -32.41)" style="fill:#ebebeb"></path><path d="M134.83,207.92c-4.61,0-82.17.51-87,.36-.35,0-.54-.53-.19-.7,3.07-1.52,6.56-1.22,9.75-2.29A10.48,10.48,0,0,0,61.69,202a9,9,0,0,1,4-2.63,8.53,8.53,0,0,1,4.4-.14,38.16,38.16,0,0,1,4.44,1.85c3.72,1.4,7.34.07,10-2.69,2.2-2.27,4.36-4.42,7.34-5.64a9.72,9.72,0,0,1,7.77-.11c2.84,1.29,4.79,3.88,7.47,5.44,3.17,1.85,7,1.42,10.45,2s6.19,3.51,9.25,5.21a6.59,6.59,0,0,0,3.35,1,20,20,0,0,0,2-.29,2.79,2.79,0,0,1,2.77.78C135.17,207,135.13,207.92,134.83,207.92Z" transform="translate(-34.46 -32.41)" style="fill:#ebebeb"></path></g><g id="freepik--Mountains--inject-130"><path d="M39.36,477.44s44.93-64.05,54.1-69.8c7-4.37,26.61-40.91,40.83-66.44,1.72-3.09,8.28-.56,9.85-3.42,5.32-9.68,9.63-17.73,11.86-21.87,4.54-8.44,30.7-4.55,35,0,2.2,2.34,17.72,36.81,27.6,53.14,3.18,5.25,24,8.6,32.6,11.29,8.27,2.6,30.48,52.18,36.91,55.78,35.52,19.9,44.3,37.69,51.36,41.31H39.36Z" transform="translate(-34.46 -32.41)" style="fill:#455a64"></path><path d="M39.35,477.43h0Z" transform="translate(-34.46 -32.41)" style="opacity:0.4"></path><path d="M39.36,477.43h0Z" transform="translate(-34.46 -32.41)" style="opacity:0.2"></path><path d="M39.37,477.43H218.13c-10.79-8.5-33.81-26.89-35.82-30.84-2.64-5.17-6.07-42.59-7.05-47.54s-19.29-34.61-20-39.95,2.27-44.22,2.33-45h0s0,0,0,0a1.51,1.51,0,0,0-.2.17l-.22.21-.21.21c-.06.08-.13.14-.18.22l-.21.25s0,.06-.07.1l-.16.23-.1.16c-.05.1-.1.17-.15.26s-.21.39-.32.61l-.36.66-.38.71-.41.75c-2.41,4.47-6.06,11.26-10.39,19.13a1.21,1.21,0,0,1-.19.29.93.93,0,0,1-.21.23,1.67,1.67,0,0,1-.28.25l-.24.14s-.59,18.75-.46,20.41,5.4,13.57,5.72,16.15-.48,12.53,0,14.66c.3,1.24,5.58,14.26,7,17.45.38.87-3.8.3-3.92.3-.52,0-5.46-11.58-6.41-12.41s-1.73-16.4-2.39-17.58-7.1-14.06-7.94-15.49-.53-21-.53-21c-2.66,4.78-5.53,10-8.45,15.23l-2.21,4-.74,1.33-2,3.64-2.78,4.94-1.39,2.45-1.38,2.41c-.45.8-.91,1.6-1.36,2.38-1.81,3.15-3.6,6.18-5.31,9.05-.43.72-.86,1.42-1.28,2.11-3.25,5.35-6.24,10-8.76,13.36-.41.55-.81,1.07-1.19,1.55s-.52.65-.77.95l-.46.53c-.44.51-.87,1-1.26,1.35,0,0,15.76,13.87,18.09,17.8s8,28.9,9.81,31.76,13.93,14.35,13.43,15.28-22.86-4.66-25.39-10.05-7.94-25.8-10.44-28.58c-1.91-2.12-11-11.38-15.94-15.76C63.37,442.56,40.27,476.51,39.37,477.43Z" transform="translate(-34.46 -32.41)" style="opacity:0.1"></path><path d="M209.83,414.62c.69.63,13.49-3.49,14.26-3.77s4.93-12.74,5.74-12.52,11.4-3.44,12.83-5,5.12-13.67,5.12-13.67h0l-3.48-1.12c-7.92-1.92-18.21-4.22-23.17-7.21-.27,2.59-1.55,15.3-1.31,17.29.28,2.22,2.37,7.37,1.74,9S209.13,414,209.83,414.62Z" transform="translate(-34.46 -32.41)" style="opacity:0.1"></path><path d="M171.35,477.43s79.31-26.38,89.36-29.82c6.4-2.19,36-38.22,56.18-58.93,1.57-1.61,9.35-.19,10.3-.81,8.13-5.31,14.37-14.78,19.37-14.78,5.45,0,47.2,59.36,51.55,64.36s27.88,23,35.16,24.83,27.38,15.15,27.38,15.15Z" transform="translate(-34.46 -32.41)" style="fill:#37474f"></path><path d="M286.84,477.43H460.65s-6-4-12.65-7.89l-1.14-.68-.58-.33-1.14-.65-.58-.33-1.71-.95c-.75-.41-1.5-.81-2.23-1.18s-1.43-.74-2.11-1.06l-1-.48-1-.42-.9-.38-.86-.33a14.06,14.06,0,0,0-1.51-.47c-.22-.06-.47-.13-.73-.22s-.53-.18-.81-.3c-.43-.18-.9-.38-1.39-.62-.32-.16-.66-.32-1-.51l-1.07-.57a143.89,143.89,0,0,1-14.35-9.51c-1.37-1-2.72-2-4-3-.44-.33-.87-.67-1.29-1l-1.86-1.47c-.41-.31-.8-.64-1.18-.95-.58-.46-1.14-.92-1.67-1.37l-1-.87c-1.17-1-2.19-1.9-3-2.69l-.67-.64c-.41-.41-.76-.78-1-1.08-4.35-5-46.1-64.36-51.55-64.36,0,0,10.1,32.31,10,34.52s-14.38,17.7-14.67,19.35-.63,11.47-1.64,12.3C339.49,439.87,304.33,465.12,286.84,477.43Zm84.59-41.09c-.16-.65,3.85-7.89,4.36-8.26s5.77-.39,6-.39,1.81-2.57,2.09-2.52a16.82,16.82,0,0,1,2.32,1.1c.28.2-.85,4.32-1.39,4.48s-4.32,5.4-4.88,5.59S371.64,437.19,371.43,436.34Z" transform="translate(-34.46 -32.41)" style="opacity:0.1"></path></g><g id="freepik--Floor--inject-130"><polygon points="431.07 445.03 356.66 436.09 325.13 422.19 252.35 404.99 173.21 410.31 112.92 386.53 69.06 369.31 43.55 363.02 0 363.57 0 445.03 431.07 445.03" style="fill:#ebebeb"></polygon><path d="M465.54,477.44c-24.84-2.91-49.71-5.68-74.53-8.69L359.47,454.9c.28.08-72.81-17.09-72.75-17.07-19,1.38-59.51,4.05-79,5.33-.33.09-104.1-41.23-104.25-41.18L78,395.62c.16,0-43.5.37-43.51.36s43.58-.74,43.6-.73l25.52,6.21s104.85,41,104.07,40.82c19.78-1.37,59.48-4.09,79.27-5.31.07,0,72.76,17.3,72.81,17.33l31.5,13.95c24.36,2.89,49.65,6.16,74.31,9.19Z" transform="translate(-34.46 -32.41)" style="fill:#263238"></path><path d="M34.46,477.44" transform="translate(-34.46 -32.41)" style="fill:none"></path></g><g id="freepik--Birds--inject-130"><path d="M107.2,67.4a18.07,18.07,0,0,1,2.22-1,9.08,9.08,0,0,1,2.43-.56,2.07,2.07,0,0,1,.75.08,1.58,1.58,0,0,1,.23.11l.15.11c.1.07.17.14.26.21.32.29.6.59.88.89.55.62,1,1.26,1.52,1.91L115,69a19,19,0,0,1,2.47-.52,10.88,10.88,0,0,1,1.29-.09,4.08,4.08,0,0,1,.69.05,2.83,2.83,0,0,1,.37.09,3,3,0,0,1,.37.17,4.64,4.64,0,0,1,1,.94c.27.34.5.68.73,1a17.17,17.17,0,0,1,1.15,2.21c-.53-.63-1-1.27-1.59-1.88a11.3,11.3,0,0,0-.83-.86,4,4,0,0,0-.87-.68,2.37,2.37,0,0,0-1-.1c-.38,0-.77.09-1.16.16-.77.14-1.57.33-2.33.54l-.38.11-.22-.32c-.44-.64-.93-1.27-1.41-1.87a8,8,0,0,0-.75-.86,1,1,0,0,0-.19-.18l-.09-.08,0,0a1.11,1.11,0,0,0-.43-.09,12.24,12.24,0,0,0-2.28.23C108.77,67.09,108,67.25,107.2,67.4Z" transform="translate(-34.46 -32.41)" style="fill:#263238"></path><path d="M115.94,91a25.5,25.5,0,0,1,3-2,14,14,0,0,1,3.4-1.53,3.28,3.28,0,0,1,1.13-.1,1.59,1.59,0,0,1,.37.1l.25.11a4.56,4.56,0,0,1,.44.24,17.69,17.69,0,0,1,1.56,1c1,.74,1.88,1.54,2.78,2.36l-.94-.13a27.39,27.39,0,0,1,3.48-1.49,16.06,16.06,0,0,1,1.87-.51,6.74,6.74,0,0,1,1-.13,3.71,3.71,0,0,1,.57,0c.19,0,.4.1.59.15a6.62,6.62,0,0,1,1.71,1.1,18.91,18.91,0,0,1,1.38,1.3,23.21,23.21,0,0,1,2.33,2.91c-1-.78-1.9-1.57-2.88-2.3-.48-.36-1-.72-1.48-1a6.14,6.14,0,0,0-1.47-.74,3.34,3.34,0,0,0-1.45.14,13.58,13.58,0,0,0-1.66.57c-1.1.43-2.21,1-3.26,1.47l-.54.27-.41-.4c-.84-.81-1.73-1.59-2.62-2.34a14.45,14.45,0,0,0-1.35-1c-.11-.07-.22-.15-.33-.21l-.15-.08s0,0-.06,0a2,2,0,0,0-.65,0,17.35,17.35,0,0,0-3.29,1C118.16,90.1,117.06,90.57,115.94,91Z" transform="translate(-34.46 -32.41)" style="fill:#263238"></path><path d="M411.59,174.38a18.06,18.06,0,0,1,2-1.3,9.27,9.27,0,0,1,2.3-1,2.24,2.24,0,0,1,.75,0,1.17,1.17,0,0,1,.25.07l.16.08.3.17a10.93,10.93,0,0,1,1,.74c.64.51,1.22,1.06,1.81,1.63l-.63-.11a19.23,19.23,0,0,1,2.36-.92,10.07,10.07,0,0,1,1.26-.3,4.91,4.91,0,0,1,.68-.06,2.43,2.43,0,0,1,.38,0,3,3,0,0,1,.4.11,4.43,4.43,0,0,1,1.11.76c.32.29.61.6.89.9a16.72,16.72,0,0,1,1.5,2c-.63-.54-1.24-1.08-1.88-1.59-.31-.25-.63-.5-1-.72a4,4,0,0,0-1-.52,2.08,2.08,0,0,0-1,.06,9.4,9.4,0,0,0-1.11.34c-.75.27-1.5.59-2.21.92l-.36.16-.27-.27c-.55-.56-1.12-1.1-1.7-1.62a9.72,9.72,0,0,0-.88-.73,1.28,1.28,0,0,0-.21-.14l-.1-.06s0,0,0,0a1.47,1.47,0,0,0-.44,0,11.4,11.4,0,0,0-2.21.6C413.09,173.82,412.35,174.11,411.59,174.38Z" transform="translate(-34.46 -32.41)" style="fill:#263238"></path><path d="M383.17,170.78a26.83,26.83,0,0,1,2.25-2.85,13.89,13.89,0,0,1,2.79-2.46,2.91,2.91,0,0,1,1.05-.43,1.17,1.17,0,0,1,.38,0,2,2,0,0,1,.27,0,4,4,0,0,1,.5.1,17.08,17.08,0,0,1,1.8.54c1.15.42,2.25.91,3.36,1.43l-.95.15a28.23,28.23,0,0,1,2.89-2.46,16.76,16.76,0,0,1,1.63-1,7.56,7.56,0,0,1,.95-.43,3.67,3.67,0,0,1,.55-.14,4.08,4.08,0,0,1,.61,0,6.72,6.72,0,0,1,1.95.54,18.09,18.09,0,0,1,1.71.84,23.86,23.86,0,0,1,3.09,2.08c-1.15-.46-2.29-.93-3.44-1.33a16.15,16.15,0,0,0-1.71-.55,5.9,5.9,0,0,0-1.63-.27,3.33,3.33,0,0,0-1.35.57,14.32,14.32,0,0,0-1.4,1c-.93.74-1.83,1.56-2.69,2.38l-.43.41-.51-.26c-1-.52-2.13-1-3.2-1.46a15.55,15.55,0,0,0-1.59-.6l-.38-.1-.17,0s0,0-.07,0a1.76,1.76,0,0,0-.62.19,18.13,18.13,0,0,0-2.85,1.93C385,169.24,384.11,170,383.17,170.78Z" transform="translate(-34.46 -32.41)" style="fill:#263238"></path><path d="M71.84,90.81A25.61,25.61,0,0,1,74.09,88a13.89,13.89,0,0,1,2.79-2.46,2.91,2.91,0,0,1,1.05-.43,1.15,1.15,0,0,1,.38,0,2,2,0,0,1,.27,0,3.54,3.54,0,0,1,.49.1,15.77,15.77,0,0,1,1.8.54c1.16.42,2.26.91,3.37,1.43l-.95.15a28.23,28.23,0,0,1,2.89-2.46,18.89,18.89,0,0,1,1.63-1,8.12,8.12,0,0,1,.94-.43,4.42,4.42,0,0,1,.55-.14,3.22,3.22,0,0,1,.62,0,6.42,6.42,0,0,1,2,.53,17.91,17.91,0,0,1,1.7.84,23.3,23.3,0,0,1,3.1,2.08c-1.16-.46-2.29-.93-3.44-1.33a16.15,16.15,0,0,0-1.71-.55,6,6,0,0,0-1.63-.27,3.28,3.28,0,0,0-1.35.57,13.32,13.32,0,0,0-1.41,1c-.92.74-1.82,1.56-2.68,2.38l-.43.41-.51-.26c-1-.52-2.13-1-3.2-1.46a14.86,14.86,0,0,0-1.6-.6l-.37-.1-.18,0s0,0-.06,0a1.76,1.76,0,0,0-.62.19,17.25,17.25,0,0,0-2.85,1.93C73.69,89.27,72.78,90.05,71.84,90.81Z" transform="translate(-34.46 -32.41)" style="fill:#263238"></path></g><g id="freepik--Character--inject-130"><path d="M277,279.09l-36.41-25s31.08-50.05,30.9-54.85c-.2-5-50.13-27.52-56.28-49.45-7.29-26,24-37,24-37l35.49,25.44s-2.44,7.32-2.33,8.73c.12,1.65,51.42,25.31,50.82,45.89C322.33,221.92,277,279.09,277,279.09Z" transform="translate(-34.46 -32.41)" style="fill:#ad6359"></path><path d="M308.21,169,269,198.83c-1.47-1-6-1.36-8-2.7-15.47-10.47-41.48-30.71-45.86-46.35-7.29-26,24.3-40.24,24.3-40.24l37.78,29.9s-2.34,6.78-2.24,8.18c.06.85,17.41,7.23,30.22,16.09C307.19,165.07,308.21,169,308.21,169Z" transform="translate(-34.46 -32.41)" style="fill:#092D74"></path><path d="M308.21,169,269,198.83c-1.47-1-6-1.36-8-2.7-15.47-10.47-41.48-30.71-45.86-46.35-7.29-26,24.3-40.24,24.3-40.24l37.78,29.9s-2.34,6.78-2.24,8.18c.06.85,17.41,7.23,30.22,16.09C307.19,165.07,308.21,169,308.21,169Z" transform="translate(-34.46 -32.41)" style="opacity:0.30000000000000004"></path><path d="M276.32,322.18c-2.52-.75-49.57-37-50.79-40-.48-1.12,1.39-8.45,8.34-18.91l.23-.33c1.42-2.15,18.7-28.69,18.7-28.69l39.14,24.17-20.08,30.66-.47.62s15.19,25.7,16.18,29.11S278.82,322.94,276.32,322.18Z" transform="translate(-34.46 -32.41)" style="fill:#ebebeb"></path><path d="M284.67,330.17c-2.63-.82-63.72-44.71-65-47.84-.5-1.18,14.72-20.61,14.79-20.72l38.19,27-.5.65s15.65,27.12,16.65,30.71S287.29,331,284.67,330.17Z" transform="translate(-34.46 -32.41)" style="fill:#37474f"></path><path d="M285.68,327.33c-10-7.64-51.11-37.5-61.58-44.28-.09-.06-.13,0,0,.06,9.76,7.79,51.1,37.31,61.51,44.38C285.78,327.64,285.89,327.49,285.68,327.33Z" transform="translate(-34.46 -32.41)" style="fill:#fff"></path><path d="M275.39,291.78c-3.47-3.65-8.82-6.59-14-5.95-.2,0-.16.3,0,.36A69.11,69.11,0,0,1,275,292.28.32.32,0,0,0,275.39,291.78Z" transform="translate(-34.46 -32.41)" style="fill:#fff"></path><path d="M277,295.63c-3.47-3.66-8.82-6.6-14-6-.2,0-.16.31,0,.36a69.7,69.7,0,0,1,13.57,6.09A.32.32,0,0,0,277,295.63Z" transform="translate(-34.46 -32.41)" style="fill:#fff"></path><path d="M278.65,299.47c-3.47-3.66-8.82-6.6-14-6-.2,0-.16.31,0,.36A69.7,69.7,0,0,1,278.26,300,.32.32,0,0,0,278.65,299.47Z" transform="translate(-34.46 -32.41)" style="fill:#fff"></path><path d="M287.16,328.67c.78,1.2-2.09,4.66-3.08,4.39s-66.7-48.34-67.64-49.4,2.38-4.79,3.83-4.05S287.16,328.67,287.16,328.67Z" transform="translate(-34.46 -32.41)" style="fill:#092D74"></path><path d="M238.44,274.81c-2.8-5.36-11.14-1-8.34,4.35S241.24,280.19,238.44,274.81Z" transform="translate(-34.46 -32.41)" style="fill:#fff"></path><path d="M293.82,255.87c-1.33,2-2.63,3.86-3.89,5.65l-.05.08-17.54,26.79.35.25-.37.48a21.41,21.41,0,0,1,3.07,2.66.32.32,0,0,1-.39.5c-.54-.32-1.08-.62-1.62-.92l1.17,2.05a21.17,21.17,0,0,1,2.47,2.22.32.32,0,0,1-.39.49l-.79-.45c.43.77.9,1.58,1.37,2.43a18.73,18.73,0,0,1,1.44,1.37.32.32,0,0,1-.38.5c4.52,8,10,17.95,10.57,20,.66,2.37-.24,6.44-1.69,8.66h0c.78,1.2-2.09,4.66-3.08,4.39s-66.7-48.34-67.64-49.4,2.38-4.79,3.83-4.05a5.82,5.82,0,0,1,.6.41h0c3.47-5.43,13.56-18.32,13.62-18.41l.34.24c2.64-4,10.9-16.72,15.24-23.38,0-.06.07-.11.1-.16,9.11-15.11,21.38-36.06,21.27-39.08a2.79,2.79,0,0,0-.94-1.53L269,198.83c-1.47-1-6-1.36-8-2.7-14.8-10-39.25-29-45.16-44.29-.14-.35-.26-.69-.38-1s-.22-.69-.32-1c-.15-.55-.29-1.09-.41-1.63,0-.23-.1-.46-.14-.68-.1-.5-.18-1-.25-1.48,0-.09,0-.18,0-.26-.08-.6-.14-1.2-.19-1.79,0,0,0,0,0,0a24,24,0,0,1,0-3.7c0-.31.05-.61.09-.92l.12-.91c2.67-18.77,25.12-28.86,25.12-28.86l28.26,22.36.32,1.54,12,57Z" transform="translate(-34.46 -32.41)" style="fill:#020100;opacity:0.1"></path><line x1="84.87" y1="223.51" x2="122.03" y2="356.63" style="fill:none;stroke:#c7c7c7;stroke-miterlimit:10"></line><line x1="64.89" y1="232.63" x2="118.65" y2="358.9" style="fill:none;stroke:#c7c7c7;stroke-miterlimit:10"></line><line x1="126.28" y1="230.29" x2="49.49" y2="342.15" style="fill:none;stroke:#c7c7c7;stroke-miterlimit:10"></line><line x1="131.26" y1="229.12" x2="70.87" y2="359.25" style="fill:none;stroke:#c7c7c7;stroke-miterlimit:10"></line><line x1="163.01" y1="274.03" x2="26.25" y2="294.48" style="fill:none;stroke:#c7c7c7;stroke-miterlimit:10"></line><line x1="32.35" y1="271.42" x2="159.75" y2="329.32" style="fill:none;stroke:#c7c7c7;stroke-miterlimit:10"></line><line x1="166.81" y1="314.27" x2="36.69" y2="254.82" style="fill:none;stroke:#c7c7c7;stroke-miterlimit:10"></line><line x1="160.25" y1="260.69" x2="39.66" y2="332.59" style="fill:none;stroke:#c7c7c7;stroke-miterlimit:10"></line><path d="M147.18,243.19A82.64,82.64,0,1,0,212,340.44,82.74,82.74,0,0,0,147.18,243.19Zm-29.6,148.06A68.35,68.35,0,1,1,198,337.63,68.43,68.43,0,0,1,117.58,391.25Z" transform="translate(-34.46 -32.41)" style="fill:#263238"></path><path d="M155.33,248.87l-17.51-3.54a2.68,2.68,0,0,1-2.1-3.15h0a2.68,2.68,0,0,1,3.16-2.09l17.51,3.54a2.67,2.67,0,0,1,2.09,3.15h0A2.66,2.66,0,0,1,155.33,248.87Z" transform="translate(-34.46 -32.41)" style="fill:#263238"></path><path d="M128.08,245.09l-17.66,2.66a2.68,2.68,0,0,1-3-2.25h0a2.67,2.67,0,0,1,2.25-3l17.67-2.66a2.67,2.67,0,0,1,3,2.24h0A2.67,2.67,0,0,1,128.08,245.09Z" transform="translate(-34.46 -32.41)" style="fill:#263238"></path><path d="M101.19,250.85,85.5,259.4a2.69,2.69,0,0,1-3.63-1.07h0a2.67,2.67,0,0,1,1.07-3.63l15.69-8.55a2.67,2.67,0,0,1,3.63,1.07h0A2.67,2.67,0,0,1,101.19,250.85Z" transform="translate(-34.46 -32.41)" style="fill:#263238"></path><path d="M77.89,265.47,66.07,278.86a2.69,2.69,0,0,1-3.78.24h0a2.69,2.69,0,0,1-.24-3.78l11.83-13.4a2.66,2.66,0,0,1,3.77-.23h0A2.68,2.68,0,0,1,77.89,265.47Z" transform="translate(-34.46 -32.41)" style="fill:#263238"></path><path d="M61,287.17,54.46,303.8A2.67,2.67,0,0,1,51,305.31h0a2.68,2.68,0,0,1-1.52-3.47L56,285.21a2.67,2.67,0,0,1,3.47-1.51h0A2.68,2.68,0,0,1,61,287.17Z" transform="translate(-34.46 -32.41)" style="fill:#263238"></path><path d="M52.54,313.34l-.45,17.86a2.68,2.68,0,0,1-2.74,2.61h0a2.68,2.68,0,0,1-2.61-2.74l.44-17.87a2.68,2.68,0,0,1,2.75-2.6h0A2.68,2.68,0,0,1,52.54,313.34Z" transform="translate(-34.46 -32.41)" style="fill:#263238"></path><path d="M53.54,340.82l5.69,16.94a2.68,2.68,0,0,1-1.68,3.39h0a2.67,2.67,0,0,1-3.39-1.69l-5.69-16.93a2.68,2.68,0,0,1,1.68-3.39h0A2.68,2.68,0,0,1,53.54,340.82Z" transform="translate(-34.46 -32.41)" style="fill:#263238"></path><path d="M63.89,366.31l11.13,14A2.66,2.66,0,0,1,74.6,384h0a2.67,2.67,0,0,1-3.76-.43l-11.14-14a2.69,2.69,0,0,1,.42-3.77h0A2.69,2.69,0,0,1,63.89,366.31Z" transform="translate(-34.46 -32.41)" style="fill:#263238"></path><path d="M82.32,386.72,97.57,396a2.68,2.68,0,0,1,.89,3.68h0a2.68,2.68,0,0,1-3.68.89l-15.25-9.32a2.67,2.67,0,0,1-.89-3.67h0A2.67,2.67,0,0,1,82.32,386.72Z" transform="translate(-34.46 -32.41)" style="fill:#263238"></path><path d="M106.63,399.59l17.51,3.54a2.67,2.67,0,0,1,2.09,3.15h0a2.68,2.68,0,0,1-3.15,2.1l-17.51-3.54a2.69,2.69,0,0,1-2.1-3.16h0A2.69,2.69,0,0,1,106.63,399.59Z" transform="translate(-34.46 -32.41)" style="fill:#263238"></path><path d="M133.87,403.37l17.67-2.66a2.67,2.67,0,0,1,3,2.25h0a2.67,2.67,0,0,1-2.24,3l-17.67,2.67a2.68,2.68,0,0,1-3-2.25h0A2.68,2.68,0,0,1,133.87,403.37Z" transform="translate(-34.46 -32.41)" style="fill:#263238"></path><path d="M160.76,397.61l15.7-8.54a2.67,2.67,0,0,1,3.63,1.07h0a2.69,2.69,0,0,1-1.07,3.63l-15.7,8.54a2.67,2.67,0,0,1-3.63-1.07h0A2.69,2.69,0,0,1,160.76,397.61Z" transform="translate(-34.46 -32.41)" style="fill:#263238"></path><path d="M184.07,383l11.82-13.4a2.68,2.68,0,0,1,3.78-.23h0a2.67,2.67,0,0,1,.23,3.77l-11.82,13.4a2.69,2.69,0,0,1-3.78.24h0A2.68,2.68,0,0,1,184.07,383Z" transform="translate(-34.46 -32.41)" style="fill:#263238"></path><path d="M201,361.3l6.53-16.63a2.68,2.68,0,0,1,3.47-1.52h0a2.67,2.67,0,0,1,1.51,3.47L206,363.25a2.68,2.68,0,0,1-3.47,1.52h0A2.68,2.68,0,0,1,201,361.3Z" transform="translate(-34.46 -32.41)" style="fill:#263238"></path><path d="M209.42,335.13l.45-17.87a2.66,2.66,0,0,1,2.74-2.6h0a2.67,2.67,0,0,1,2.61,2.74l-.45,17.86a2.68,2.68,0,0,1-2.74,2.61h0A2.68,2.68,0,0,1,209.42,335.13Z" transform="translate(-34.46 -32.41)" style="fill:#263238"></path><path d="M208.41,307.64l-5.69-16.94a2.68,2.68,0,0,1,1.69-3.39h0A2.68,2.68,0,0,1,207.8,289l5.69,16.93a2.67,2.67,0,0,1-1.69,3.39h0A2.67,2.67,0,0,1,208.41,307.64Z" transform="translate(-34.46 -32.41)" style="fill:#263238"></path><path d="M198.07,282.16l-11.14-14a2.68,2.68,0,0,1,.42-3.76h0a2.68,2.68,0,0,1,3.77.42l11.14,14a2.67,2.67,0,0,1-.43,3.76h0A2.68,2.68,0,0,1,198.07,282.16Z" transform="translate(-34.46 -32.41)" style="fill:#263238"></path><path d="M179.63,261.75l-15.24-9.32a2.68,2.68,0,0,1-.89-3.68h0a2.68,2.68,0,0,1,3.68-.89l15.24,9.32a2.67,2.67,0,0,1,.89,3.68h0A2.68,2.68,0,0,1,179.63,261.75Z" transform="translate(-34.46 -32.41)" style="fill:#263238"></path><line x1="266.02" y1="351.54" x2="399.15" y2="314.38" style="fill:none;stroke:#c7c7c7;stroke-miterlimit:10"></line><line x1="275.14" y1="371.53" x2="401.41" y2="317.76" style="fill:none;stroke:#c7c7c7;stroke-miterlimit:10"></line><line x1="272.8" y1="310.13" x2="384.66" y2="386.92" style="fill:none;stroke:#c7c7c7;stroke-miterlimit:10"></line><line x1="271.63" y1="305.15" x2="401.77" y2="365.54" style="fill:none;stroke:#c7c7c7;stroke-miterlimit:10"></line><line x1="316.54" y1="273.41" x2="336.99" y2="410.17" style="fill:none;stroke:#c7c7c7;stroke-miterlimit:10"></line><line x1="313.94" y1="404.06" x2="371.83" y2="276.67" style="fill:none;stroke:#c7c7c7;stroke-miterlimit:10"></line><line x1="356.78" y1="269.6" x2="297.34" y2="399.73" style="fill:none;stroke:#c7c7c7;stroke-miterlimit:10"></line><line x1="303.21" y1="276.17" x2="375.1" y2="396.75" style="fill:none;stroke:#c7c7c7;stroke-miterlimit:10"></line><path d="M287.76,356.11A82.64,82.64,0,1,0,385,291.27,82.74,82.74,0,0,0,287.76,356.11Zm148.06,29.6a68.35,68.35,0,1,1-53.62-80.42A68.43,68.43,0,0,1,435.82,385.71Z" transform="translate(-34.46 -32.41)" style="fill:#263238"></path><path d="M293.44,348l-3.54,17.52a2.69,2.69,0,0,1-3.16,2.09h0a2.69,2.69,0,0,1-2.09-3.16l3.54-17.51a2.68,2.68,0,0,1,3.16-2.09h0A2.68,2.68,0,0,1,293.44,348Z" transform="translate(-34.46 -32.41)" style="fill:#263238"></path><path d="M289.66,375.21l2.66,17.66a2.68,2.68,0,0,1-2.25,3.05h0a2.68,2.68,0,0,1-3.05-2.25L284.36,376a2.67,2.67,0,0,1,2.25-3h0A2.68,2.68,0,0,1,289.66,375.21Z" transform="translate(-34.46 -32.41)" style="fill:#263238"></path><path d="M295.42,402.1,304,417.79a2.67,2.67,0,0,1-1.07,3.63h0a2.67,2.67,0,0,1-3.63-1.07l-8.54-15.69a2.67,2.67,0,0,1,1.07-3.63h0A2.67,2.67,0,0,1,295.42,402.1Z" transform="translate(-34.46 -32.41)" style="fill:#263238"></path><path d="M310,425.4l13.4,11.82a2.68,2.68,0,0,1,.23,3.78h0a2.69,2.69,0,0,1-3.78.24l-13.39-11.83a2.66,2.66,0,0,1-.24-3.77h0A2.68,2.68,0,0,1,310,425.4Z" transform="translate(-34.46 -32.41)" style="fill:#263238"></path><path d="M331.73,442.3l16.63,6.53a2.67,2.67,0,0,1,1.52,3.46h0a2.68,2.68,0,0,1-3.47,1.52l-16.63-6.53a2.68,2.68,0,0,1-1.52-3.47h0A2.68,2.68,0,0,1,331.73,442.3Z" transform="translate(-34.46 -32.41)" style="fill:#263238"></path><path d="M357.9,450.75l17.86.45a2.67,2.67,0,0,1,2.61,2.74h0a2.67,2.67,0,0,1-2.74,2.61l-17.86-.44a2.68,2.68,0,0,1-2.61-2.75h0A2.69,2.69,0,0,1,357.9,450.75Z" transform="translate(-34.46 -32.41)" style="fill:#263238"></path><path d="M385.39,449.75l16.93-5.69a2.67,2.67,0,0,1,3.39,1.68h0a2.66,2.66,0,0,1-1.68,3.39l-16.94,5.69a2.68,2.68,0,0,1-3.39-1.68h0A2.68,2.68,0,0,1,385.39,449.75Z" transform="translate(-34.46 -32.41)" style="fill:#263238"></path><path d="M410.87,439.4l14-11.13a2.66,2.66,0,0,1,3.76.42h0a2.68,2.68,0,0,1-.42,3.76l-14,11.14a2.68,2.68,0,0,1-3.76-.42h0A2.69,2.69,0,0,1,410.87,439.4Z" transform="translate(-34.46 -32.41)" style="fill:#263238"></path><path d="M431.28,421l9.32-15.25a2.68,2.68,0,0,1,3.68-.89h0a2.68,2.68,0,0,1,.89,3.68l-9.32,15.25a2.68,2.68,0,0,1-3.68.89h0A2.68,2.68,0,0,1,431.28,421Z" transform="translate(-34.46 -32.41)" style="fill:#263238"></path><path d="M444.16,396.66l3.54-17.51a2.66,2.66,0,0,1,3.15-2.09h0a2.66,2.66,0,0,1,2.09,3.15l-3.54,17.51a2.68,2.68,0,0,1-3.15,2.1h0A2.68,2.68,0,0,1,444.16,396.66Z" transform="translate(-34.46 -32.41)" style="fill:#263238"></path><path d="M447.94,369.42l-2.66-17.67a2.67,2.67,0,0,1,2.24-3h0a2.67,2.67,0,0,1,3.05,2.24l2.66,17.67a2.68,2.68,0,0,1-2.25,3.05h0A2.67,2.67,0,0,1,447.94,369.42Z" transform="translate(-34.46 -32.41)" style="fill:#263238"></path><path d="M442.18,342.53l-8.55-15.7a2.67,2.67,0,0,1,1.07-3.63h0a2.69,2.69,0,0,1,3.63,1.07l8.55,15.7a2.69,2.69,0,0,1-1.07,3.63h0A2.69,2.69,0,0,1,442.18,342.53Z" transform="translate(-34.46 -32.41)" style="fill:#263238"></path><path d="M427.56,319.23,414.17,307.4a2.68,2.68,0,0,1-.24-3.78h0a2.68,2.68,0,0,1,3.78-.23l13.4,11.82a2.68,2.68,0,0,1,.23,3.78h0A2.69,2.69,0,0,1,427.56,319.23Z" transform="translate(-34.46 -32.41)" style="fill:#263238"></path><path d="M405.86,302.33l-16.63-6.53a2.67,2.67,0,0,1-1.51-3.47h0a2.67,2.67,0,0,1,3.47-1.51l16.63,6.52a2.68,2.68,0,0,1,1.51,3.47h0A2.68,2.68,0,0,1,405.86,302.33Z" transform="translate(-34.46 -32.41)" style="fill:#263238"></path><path d="M379.69,293.87l-17.86-.45a2.67,2.67,0,0,1-2.61-2.74h0a2.69,2.69,0,0,1,2.74-2.61l17.86.45a2.67,2.67,0,0,1,2.61,2.74h0A2.67,2.67,0,0,1,379.69,293.87Z" transform="translate(-34.46 -32.41)" style="fill:#263238"></path><path d="M352.2,294.88l-16.93,5.69a2.68,2.68,0,0,1-3.39-1.69h0a2.68,2.68,0,0,1,1.68-3.39l16.94-5.69a2.67,2.67,0,0,1,3.39,1.69h0A2.68,2.68,0,0,1,352.2,294.88Z" transform="translate(-34.46 -32.41)" style="fill:#263238"></path><path d="M326.72,305.22l-14,11.14a2.68,2.68,0,0,1-3.76-.42h0a2.69,2.69,0,0,1,.42-3.77l14-11.13a2.66,2.66,0,0,1,3.76.42h0A2.66,2.66,0,0,1,326.72,305.22Z" transform="translate(-34.46 -32.41)" style="fill:#263238"></path><path d="M306.31,323.66,297,338.9a2.67,2.67,0,0,1-3.67.89h0a2.67,2.67,0,0,1-.89-3.68l9.31-15.24a2.67,2.67,0,0,1,3.68-.89h0A2.68,2.68,0,0,1,306.31,323.66Z" transform="translate(-34.46 -32.41)" style="fill:#263238"></path><rect x="200.49" y="183.75" width="7.73" height="56.66" transform="translate(-66.94 4.59) rotate(-9.59)" style="fill:#263238"></rect><rect x="336.44" y="215.72" width="23.07" height="5.39" transform="translate(-70.53 331.96) rotate(-52.92)" style="fill:#263238"></rect><rect x="338.58" y="214.5" width="7.32" height="31.34" transform="matrix(0.98, -0.17, 0.17, 0.98, -69.09, 30.21)" style="fill:#c7c7c7"></rect><polygon points="194.5 317.64 94.7 297.88 97.73 288.7 184.46 305.53 306.81 210.91 310.33 225.88 194.5 317.64" style="fill:#092D74"></polygon><polygon points="186.99 308.79 168.46 200.86 177.97 199.12 196.49 307.05 186.99 308.79" style="fill:#092D74"></polygon><polygon points="191.99 297.86 220.62 225.28 229.55 228.96 200.93 301.53 191.99 297.86" style="fill:#092D74"></polygon><rect x="342.38" y="238.83" width="9.66" height="41.38" transform="translate(-74.09 31.51) rotate(-9.95)" style="fill:#092D74"></rect><rect x="356.54" y="270.1" width="4.83" height="102.69" transform="translate(-89.91 43.17) rotate(-11.16)" style="fill:#092D74"></rect><path d="M365.66,209a9.53,9.53,0,1,1-7.45-11.24A9.53,9.53,0,0,1,365.66,209Z" transform="translate(-34.46 -32.41)" style="fill:#263238"></path><path d="M371.49,222,354.9,213a5.93,5.93,0,0,1-2.37-8.06h0a5.94,5.94,0,0,1,8.06-2.38l16.59,9.05a5.94,5.94,0,0,1,2.38,8.06h0A6,6,0,0,1,371.49,222Z" transform="translate(-34.46 -32.41)" style="fill:#37474f"></path><ellipse cx="375.16" cy="217.25" rx="3.73" ry="3.12" transform="translate(18.46 474.84) rotate(-72.06)" style="fill:#455a64"></ellipse><polygon points="306.77 219.38 179.37 238.84 181.01 230.7 308.42 211.23 306.77 219.38" style="fill:#092D74"></polygon><path d="M329.81,256a1064.78,1064.78,0,0,1-90.69,70.06A1063.21,1063.21,0,0,1,329.81,256Z" transform="translate(-34.46 -32.41)" style="fill:#fff;opacity:0.30000000000000004"></path><path d="M246.32,279.92l-2.14,5.42-19.5,3.24a2.5,2.5,0,1,1-.81-4.93Z" transform="translate(-34.46 -32.41)" style="fill:#263238"></path><path d="M128.89,327.62a2.45,2.45,0,0,1-1.4-.84,2.49,2.49,0,0,1,.28-3.52l65.48-55.57a2.5,2.5,0,1,1,3.23,3.81L131,327.07A2.51,2.51,0,0,1,128.89,327.62Z" transform="translate(-34.46 -32.41)" style="fill:#c7c7c7"></path><path d="M222.83,288.63a2.43,2.43,0,0,1-.76-.29l-28.46-16.59a2.5,2.5,0,0,1,2.52-4.32L224.59,284a2.5,2.5,0,0,1-1.76,4.61Z" transform="translate(-34.46 -32.41)" style="fill:#dbdbdb"></path><path d="M142.64,326.56a11.89,11.89,0,1,1-9.33-14A11.89,11.89,0,0,1,142.64,326.56Z" transform="translate(-34.46 -32.41)" style="fill:#37474f"></path><path d="M380.56,374.15a11.89,11.89,0,1,1-9.33-14A11.9,11.9,0,0,1,380.56,374.15Z" transform="translate(-34.46 -32.41)" style="fill:#37474f"></path><polyline points="148.54 149.15 167.69 166.43 183.08 153.34" style="fill:none;stroke:#263238;stroke-miterlimit:10"></polyline><path d="M173,177.82c5.46,4.3,18.73,8.41,31.72,8.38,11.8,0,27.3,5.23,28.12,1.12.32-1.59-8.15-5.52-23.75-8.64-15.36-3.07-31.94-10.47-39.32-9C166.54,170.26,170.24,175.68,173,177.82Z" transform="translate(-34.46 -32.41)" style="fill:#455a64"></path><polygon points="175.81 342.29 171.06 339.56 190.95 309.24 195.71 311.96 175.81 342.29" style="fill:#a6a6a6"></polygon><rect x="198.27" y="368.74" width="24.23" height="7.03" transform="translate(200.89 766.71) rotate(-153.87)" style="fill:#263238"></rect><path d="M254.3,348.49a1,1,0,0,1,.33-1.66.94.94,0,0,0,.66-.72,1,1,0,0,0-.43-1,.93.93,0,0,1-.42-1,1,1,0,0,1,.55-.69.94.94,0,0,0,.55-.68,1,1,0,0,0-.53-1.06,1,1,0,0,1-.54-1.05,1,1,0,0,1,.45-.63.89.89,0,0,0,.44-.61.94.94,0,0,0-.64-1.11,1,1,0,0,1-.64-1.1,1,1,0,0,1,.34-.56,1,1,0,0,0-.4-1.69h0a1,1,0,0,1-.76-1.13.89.89,0,0,1,.26-.47,1,1,0,0,0-.48-1.61l-.14,0a1,1,0,0,1-.88-1.14,1,1,0,0,1,.18-.39,1,1,0,0,0-.57-1.53h-.26a1,1,0,0,1-1-1.14.79.79,0,0,1,.11-.29,1,1,0,0,0-.63-1.41,1,1,0,0,0-.38,0,1,1,0,0,1-1.12-1.12l.06-.19a1,1,0,0,0-.69-1.32,1,1,0,0,0-.48,0,1,1,0,0,1-1.23-1.09l0-.08a1,1,0,0,0-.74-1.19,1,1,0,0,0-.6.07.88.88,0,0,1-.59.08,1,1,0,0,1-.76-1.08,1,1,0,0,0-.75-1.08,1,1,0,0,0-.71.13,1,1,0,0,1-.69.14,1,1,0,0,1-.78-1,1,1,0,0,0-1.56-.76.9.9,0,0,1-.79.2.94.94,0,0,1-.76-.84,1,1,0,0,0-.77-.84.93.93,0,0,0-.88.28,1,1,0,0,1-1.63-.43.94.94,0,0,0-.74-.72,1,1,0,0,0-1,.37.93.93,0,0,1-1,.37.92.92,0,0,1-.7-.6,1,1,0,0,0-1.73-.12,1,1,0,0,1-1,.47.94.94,0,0,1-.65-.49,1,1,0,0,0-.66-.5,1,1,0,0,0-1.08.59,1,1,0,0,1-1.09.58.9.9,0,0,1-.58-.39.89.89,0,0,0-.59-.39.94.94,0,0,0-1.12.7,1,1,0,0,1-1.12.7,1,1,0,0,1-.52-.3,1,1,0,0,0-1.64.43v.08a1,1,0,0,1-1.58.61,1,1,0,0,0-1.56.52,1.5,1.5,0,0,0,0,.2,1,1,0,0,1-1.14.95,1.19,1.19,0,0,1-.35-.15,1,1,0,0,0-1.46.6.8.8,0,0,0,0,.31,1,1,0,0,1-1.13,1.06,1,1,0,0,1-.25-.08,1,1,0,0,0-1.37.66,1.27,1.27,0,0,0,0,.43,1,1,0,0,1-1.12,1.18l-.13,0a1,1,0,0,0-1.25.72,1,1,0,0,0,.05.54,1,1,0,0,1-1.07,1.28h0a1,1,0,0,0-1.14.75,1,1,0,0,0,.1.65.92.92,0,0,1,.1.64,1,1,0,0,1-1,.77,1,1,0,0,0-.86,1.51.94.94,0,0,1-.72,1.52.94.94,0,0,0-.9.77.9.9,0,0,0,.24.84,1,1,0,0,1-.54,1.6.95.95,0,0,0-.45,1.67.93.93,0,0,1,.32.93,1,1,0,0,1-.65.73.94.94,0,0,0-.24,1.71,1,1,0,0,1,.42,1,.94.94,0,0,1-.55.68.95.95,0,0,0,0,1.73,1,1,0,0,1,.08,1.69.91.91,0,0,0-.44.62,1,1,0,0,0,.64,1.1,1,1,0,0,1,.63,1.11.89.89,0,0,1-.33.55,1,1,0,0,0,.4,1.69h0a1,1,0,0,1,.76,1.13,1,1,0,0,1-.26.48,1,1,0,0,0,.49,1.61l.13,0a1,1,0,0,1,.89,1.14,1,1,0,0,1-.18.39,1,1,0,0,0,.57,1.52h.25a1,1,0,0,1,.88,1.43,1,1,0,0,0,.64,1.42.92.92,0,0,0,.37,0,1,1,0,0,1,1.12,1.12l-.06.19a1,1,0,0,0,.69,1.31,1,1,0,0,0,.48,0,1,1,0,0,1,1.24,1.1v.07a.94.94,0,0,0,.72,1.19,1,1,0,0,0,.6-.07.88.88,0,0,1,.59-.08,1,1,0,0,1,.76,1.08.95.95,0,0,0,1.46.94,1,1,0,0,1,1.46.84,1,1,0,0,0,.78,1,1,1,0,0,0,.79-.2.9.9,0,0,1,.79-.2.94.94,0,0,1,.77.83,1,1,0,0,0,1.65.56.94.94,0,0,1,1.62.43,1,1,0,0,0,.75.73.94.94,0,0,0,1-.38.94.94,0,0,1,1-.38,1,1,0,0,1,.71.61,1,1,0,0,0,1.74.12,1,1,0,0,1,1-.47,1,1,0,0,1,.65.5,1,1,0,0,0,1.74-.09.94.94,0,0,1,1.67-.2,1,1,0,0,0,.6.39.94.94,0,0,0,1.11-.69,1,1,0,0,1,1.12-.71,1,1,0,0,1,.52.3,1,1,0,0,0,1.65-.45V368a1,1,0,0,1,1.14-.82,1,1,0,0,1,.44.21,1,1,0,0,0,1.55-.52,1.23,1.23,0,0,0,0-.2,1,1,0,0,1,1.14-.94.83.83,0,0,1,.35.15,1,1,0,0,0,1.46-.61.8.8,0,0,0,0-.31A1,1,0,0,1,244,363.9a1.13,1.13,0,0,1,.24.08,1,1,0,0,0,1.37-.66,1.06,1.06,0,0,0,0-.43,1,1,0,0,1,1.11-1.17.61.61,0,0,1,.13,0,1,1,0,0,0,1.26-.72,1,1,0,0,0,0-.53,1,1,0,0,1,1.07-1.29h0a1,1,0,0,0,1.14-.75.94.94,0,0,0-.1-.65,1,1,0,0,1-.1-.64,1,1,0,0,1,1-.77.94.94,0,0,0,1-.76,1,1,0,0,0-.16-.75,1,1,0,0,1-.18-.75,1,1,0,0,1,.91-.77,1,1,0,0,0,.9-.77.92.92,0,0,0-.25-.83,1,1,0,0,1-.24-.85,1,1,0,0,1,.78-.76,1,1,0,0,0,.46-1.67ZM223.58,363a21.18,21.18,0,1,1,24.95-16.57A21.18,21.18,0,0,1,223.58,363Zm8.56-44.92" transform="translate(-34.46 -32.41)" style="fill:#a6a6a6"></path><rect x="218.97" y="328.77" width="22.28" height="3.84" transform="translate(-174.09 458.3) rotate(-78.57)" style="fill:#a6a6a6"></rect><rect x="216.48" y="324.67" width="3.84" height="22.28" transform="translate(-216.49 314.64) rotate(-58.57)" style="fill:#a6a6a6"></rect><rect x="208.05" y="346.64" width="22.28" height="3.84" transform="translate(-203.99 180.38) rotate(-38.58)" style="fill:#a6a6a6"></rect><polyline points="197.6 327.62 191.62 309.81 195.26 308.59 202.35 329.71 198.71 330.93 197.6 327.62" style="fill:#a6a6a6"></polyline><rect x="237.12" y="330.75" width="3.84" height="22.28" transform="translate(-143.13 539.97) rotate(-88.58)" style="fill:#a6a6a6"></rect><path d="M234.1,343.55a6.46,6.46,0,1,1-5-7.61A6.47,6.47,0,0,1,234.1,343.55Z" transform="translate(-34.46 -32.41)" style="fill:#a6a6a6"></path><path d="M230.71,342.86a3,3,0,1,1-2.35-3.54A3,3,0,0,1,230.71,342.86Z" transform="translate(-34.46 -32.41)" style="fill:#263238"></path><polygon points="212.73 275.8 217.49 278.52 197.37 307.61 192.61 304.89 212.73 275.8" style="fill:#a6a6a6"></polygon><rect x="234.97" y="307.14" width="24.23" height="7.03" transform="translate(127.58 -109.47) rotate(26.13)" style="fill:#263238"></rect><path d="M274.68,138.19s-5.3,12.17-7.06,17.22c0,0,15.1,64.66,11.35,80-4.38,17.94-48.49,111.76-48.49,111.76L190,327s10-28.54,19.66-51.69c6.87-16.46,19.66-42.82,20.42-45.93,3.74-15.17-14.85-80.2-13.85-90.95,2.25-24.15,21.7-30.16,21.7-30.16Z" transform="translate(-34.46 -32.41)" style="fill:#ad6359"></path><path d="M239.25,382.77c-2.6-.37-54.58-29.1-56.23-31.86-.64-1,.1-8.56,5.4-20,.06-.11.11-.23.17-.35,1.09-2.35,14.15-38.21,14.15-38.21l44.64,19.35-17.52,39-.37.69s18.89,23.11,20.38,26.33S241.84,383.15,239.25,382.77Z" transform="translate(-34.46 -32.41)" style="fill:#ebebeb"></path><path d="M251.92,385.52c-2.74-.25-71.61-30.51-73.47-33.31-.73-1.06,10.12-23.22,10.17-23.35l43,18.53-.35.74s20.93,23.28,22.66,26.58S254.66,385.79,251.92,385.52Z" transform="translate(-34.46 -32.41)" style="fill:#37474f"></path><path d="M252.32,382.53C241,377.14,194.55,356.46,182.89,352c-.09,0-.12,0,0,.07,11.16,5.59,57.72,25.89,69.38,30.65C252.49,382.82,252.56,382.65,252.32,382.53Z" transform="translate(-34.46 -32.41)" style="fill:#fff"></path><path d="M234.87,349.9c-4.15-2.85-10-4.62-14.88-2.93-.19.06-.1.33.07.35a69.74,69.74,0,0,1,14.54,3.15A.32.32,0,0,0,234.87,349.9Z" transform="translate(-34.46 -32.41)" style="fill:#fff"></path><path d="M237.27,353.32c-4.15-2.85-10-4.62-14.89-2.93-.19.07-.09.33.07.35A69.83,69.83,0,0,1,237,353.89.32.32,0,0,0,237.27,353.32Z" transform="translate(-34.46 -32.41)" style="fill:#fff"></path><path d="M239.66,356.74c-4.15-2.85-10-4.62-14.89-2.93-.19.07-.09.33.08.35a69.74,69.74,0,0,1,14.54,3.15A.32.32,0,0,0,239.66,356.74Z" transform="translate(-34.46 -32.41)" style="fill:#fff"></path><path d="M254.05,383.54c1,1-1.08,5-2.1,4.93S176.66,355,175.52,354.18s1.34-5.17,2.92-4.75S254.05,383.54,254.05,383.54Z" transform="translate(-34.46 -32.41)" style="fill:#092D74"></path><path d="M195.21,341c-3.85-4.67-11.11,1.3-7.26,6S199.07,345.65,195.21,341Z" transform="translate(-34.46 -32.41)" style="fill:#fff"></path><path d="M267.62,155.4s8.25,31.26,12.79,50.66c.5,2.14-1.33,6-1.33,6l-49.47,3.83s-5.89-3.35-6.31-5.64c-5.11-27.78-11.64-63.61-9.67-73.34,4.82-23.78,24.29-28.65,24.29-28.65l37.46,29.79S268.59,154.45,267.62,155.4Z" transform="translate(-34.46 -32.41)" style="fill:#092D74"></path><path d="M267.62,155.4s8.25,31.26,12.79,50.66c.5,2.14-1.33,6-1.33,6l-49.47,3.83s-5.89-3.35-6.31-5.64c-5.11-27.78-11.64-63.61-9.67-73.34,4.82-23.78,24.29-28.65,24.29-28.65l37.46,29.79S268.59,154.45,267.62,155.4Z" transform="translate(-34.46 -32.41)" style="opacity:0.30000000000000004"></path><g style="opacity:0.2"><path d="M247.68,182c-.84-4.13-.58-2.83-1.42-7s-1.54-8.15-2.49-12.17c-.11-.46-.2-.85-.71-1a8.53,8.53,0,0,0-2.74.35q-3.39.51-6.75,1.19a142.92,142.92,0,0,0-14.32,3.48c-.42.13-.28.8.16.68a170,170,0,0,1,22-4.78c.4-.06,1.28-.31,1.62,0a4,4,0,0,1,.18.9l.54,2.71,1.08,5.41c.72,3.61.32,1.79,1,5.4l1,5c.18.91.37,1.81.55,2.71.09.45.21.9.27,1.35a1.9,1.9,0,0,1-.66,2,48.36,48.36,0,0,1-3.82,3l-4.26,3.32a11.13,11.13,0,0,1-2.3,1.72c-.91.34-2.21-.53-3-.89l-7.52-3.28a8.7,8.7,0,0,1-2.14-1.43c-.66-.66-4.36-19.51-4.57-23.57,0-.18-.46-.15-.45,0,.22,3.82,3.07,21.92,3.72,23.66.55,1.48,2,1.91,3.31,2.48l5.64,2.45c1,.42,1.95.85,2.93,1.26a3.09,3.09,0,0,0,2.12.36,6,6,0,0,0,1.69-1.14c.82-.66,1.65-1.3,2.47-2l4.77-3.76c1.06-.83,2.88-1.77,3.05-3.27a7.15,7.15,0,0,0-.29-2.1C248.1,184.07,247.89,183,247.68,182Z" transform="translate(-34.46 -32.41)"></path><path d="M243.14,164.25c-3.22,3.19-6.47,6.34-9.88,9.32-.44.39-.88.78-1.33,1.15a1.8,1.8,0,0,1-2.35.2c-1-.46-1.91-.95-2.88-1.41-2.2-1-4.42-2.06-6.63-3.1-.16-.08-.32.15-.15.25,2.38,1.33,4.75,2.67,7.17,4,1.64.87,3.41,2.34,5.13.94a75.54,75.54,0,0,0,5.51-5.23c1.91-1.91,3.76-3.9,5.52-6C243.31,164.29,243.21,164.17,243.14,164.25Z" transform="translate(-34.46 -32.41)"></path><path d="M231.43,172.4a1.16,1.16,0,0,0-.75-.7,1.18,1.18,0,0,0-1.08.45c-.12.14.08.35.2.22a.84.84,0,0,1,.4-.28.41.41,0,0,1,.22,0l.12.06a1.37,1.37,0,0,1,.17.17l.08.09s0,0,0,0a2.2,2.2,0,0,1,.23.46.77.77,0,0,1-.21.81.35.35,0,0,1-.44.05,1,1,0,0,1-.35-.44s-.1,0-.08,0c.1.3.27.63.62.69a.86.86,0,0,0,.82-.52A1.25,1.25,0,0,0,231.43,172.4Z" transform="translate(-34.46 -32.41)"></path></g><g style="opacity:0.2"><path d="M240.62,112.48c-11.36,10-16,25.75-14.89,40.5.14,3.35.77,7,1.25,10.29A70.71,70.71,0,0,1,225.1,153c-1.75-14.84,3.22-31.38,15.52-40.55Z" transform="translate(-34.46 -32.41)"></path><path d="M235.41,198.84a44.64,44.64,0,0,1,2.44,13.24,44.26,44.26,0,0,1-2.44-13.24Z" transform="translate(-34.46 -32.41)"></path></g><path d="M310.13,108.85c-2.69,21.09-5.76,45.12-2.23,49.88,8.45,11.38,25.18,22.82,36.46,29.73,3.67,2.26,19-22.58,15.38-25.38C357,161,331.52,144.73,330.62,143c-.72-1.43-2.48-23-6.48-39.37C320.07,86.87,311.81,95.73,310.13,108.85Z" transform="translate(-34.46 -32.41)" style="fill:#ad6359"></path><path d="M360.6,195.49c-1.84-.47-2.1.49-.05,3.18s12.47,11.58,9.06,15-17.92-9.39-21-14.13-6.4-13.48-6.4-13.48C345.53,187.93,354,191.81,360.6,195.49Z" transform="translate(-34.46 -32.41)" style="fill:#ad6359"></path><path d="M358.71,162.33c15.25,8.19,21.13,13.25,26.75,24.08a6.06,6.06,0,0,1,.67,3.9c2.61,4.81,1.12,7.48,1.12,7.48,1.05,5.22-.84,7.75-.84,7.75s3,5.67-.14,8.05c-3.5,2.68-7-5.81-11.82-9.3-11-8-28.84-16.29-32.24-18.28Z" transform="translate(-34.46 -32.41)" style="fill:#ad6359"></path><path d="M368.82,187.82a86.49,86.49,0,0,1,9.23,7.54,88,88,0,0,1,8.21,10.15.11.11,0,0,0,.18-.11,46.24,46.24,0,0,0-17.51-17.73C368.76,187.57,368.66,187.69,368.82,187.82Z" transform="translate(-34.46 -32.41)" style="fill:#263238"></path><path d="M372.69,180.48c3,2.53,8.16,7,14.45,17.38,0,0,.08,0,.07,0a41.5,41.5,0,0,0-14.4-17.49C372.61,180.2,372.49,180.32,372.69,180.48Z" transform="translate(-34.46 -32.41)" style="fill:#263238"></path><path d="M374.83,176.58c4.89,4.49,7.41,7.93,11.27,13.72,0,0,.08,0,.06,0-3.7-7-5.83-9.17-11.19-13.87C374.78,176.23,374.64,176.41,374.83,176.58Z" transform="translate(-34.46 -32.41)" style="fill:#263238"></path><path d="M304,137.57l26.91-1.24s-2.69-21-6.8-34c-3.95-12.5-9.94-10.74-12.52-2.1C309.31,107.9,304,137.57,304,137.57Z" transform="translate(-34.46 -32.41)" style="fill:#092D74"></path><path d="M312.59,131.11l5.05-.29,4.94-.32c1.7-.12,3.41-.27,5.12-.22a0,0,0,0,1,0,.06,37.69,37.69,0,0,1-4.85.66c-1.68.16-3.36.29-5,.41s-3.3.22-4.95.3a36.74,36.74,0,0,1-5.14,0,.06.06,0,0,1,0-.12A44.08,44.08,0,0,1,312.59,131.11Z" transform="translate(-34.46 -32.41)" style="fill:#263238"></path><path d="M322.55,98.25,315.64,137l-11.62.54s5.29-29.68,7.59-37.37S318.73,90.34,322.55,98.25Z" transform="translate(-34.46 -32.41)" style="fill:#020100;opacity:0.1"></path><path d="M222.23,116.82c-.15.19,55.29,29.26,56.24,29.34.67.05,6.43-3.46,12.28-9.38,4.41-4.46,28.22-20.36,31.65-27.28,4.26-8.61.29-17.85-6.76-20C277.65,78.1,228.91,108.62,222.23,116.82Z" transform="translate(-34.46 -32.41)" style="fill:#092D74"></path><path d="M316.63,109.58c-2.59-2.2-5.08-12.36-2.68-17.07.17-.32,2.62-1.37,6.24-3.35,2.19-1.21,4.6-2.61,6.71-4,.43-.3,5.78,15.4,5.78,15.4a40.82,40.82,0,0,0-9,4.23,5.4,5.4,0,0,0-.8.68l-.13.11C321.33,106.93,319.41,111.94,316.63,109.58Z" transform="translate(-34.46 -32.41)" style="fill:#ad6359"></path><path d="M332.67,100.52a40.53,40.53,0,0,0-8.85,4.17,20.84,20.84,0,0,1-1.05-17c1.41-.82,2.82-1.7,4.13-2.58C327.33,84.82,332.67,100.52,332.67,100.52Z" transform="translate(-34.46 -32.41)" style="fill:#263238"></path><path d="M331.11,69.63c-4.43,3.93-10.41,19.47-8.87,24.68,2.23,7.56,10.13,13,17.63,9.33,7.27-3.54,14.7-23.92,12.59-29.09C349.35,66.92,337.66,63.82,331.11,69.63Z" transform="translate(-34.46 -32.41)" style="fill:#ad6359"></path><path d="M340.22,86.89s-.1,0-.12.06c-.4,1-1,2.18-2.12,2.13,0,0-.05,0,0,.06C339.17,89.46,340,88,340.22,86.89Z" transform="translate(-34.46 -32.41)" style="fill:#263238"></path><path d="M339.75,85.43c-1.61-.83-3.15,2.44-1.66,3.21S341.1,86.12,339.75,85.43Z" transform="translate(-34.46 -32.41)" style="fill:#263238"></path><path d="M346,89.36s.05.09,0,.13c-.51,1-.92,2.23-.16,3a0,0,0,0,1,0,.05C344.74,91.85,345.3,90.23,346,89.36Z" transform="translate(-34.46 -32.41)" style="fill:#263238"></path><path d="M347.35,88.73c1.69.64.28,4-1.28,3.38S345.93,88.19,347.35,88.73Z" transform="translate(-34.46 -32.41)" style="fill:#263238"></path><path d="M339.19,83.38a11.93,11.93,0,0,0,1.27.77,2.47,2.47,0,0,0,1.45.54.76.76,0,0,0,.64-.68,1.93,1.93,0,0,0-1.07-1.61,2.8,2.8,0,0,0-2-.47A.81.81,0,0,0,339.19,83.38Z" transform="translate(-34.46 -32.41)" style="fill:#263238"></path><path d="M349.39,87.67a13,13,0,0,1-1.14-1,2.44,2.44,0,0,1-1-1.19.77.77,0,0,1,.44-.82,1.86,1.86,0,0,1,1.86.48,2.73,2.73,0,0,1,1.09,1.68A.81.81,0,0,1,349.39,87.67Z" transform="translate(-34.46 -32.41)" style="fill:#263238"></path><path d="M334.88,95.62c.13.36.22.8.58,1a2.92,2.92,0,0,0,1.21.26,0,0,0,0,1,0,.07,1.51,1.51,0,0,1-1.55,0,1.22,1.22,0,0,1-.38-1.28C334.77,95.56,334.86,95.57,334.88,95.62Z" transform="translate(-34.46 -32.41)" style="fill:#263238"></path><path d="M337.37,93.09A3.86,3.86,0,0,0,339,95.71a4.73,4.73,0,0,0,1.22.64l.25.08.23.07a.28.28,0,0,0,.31-.13h0s0-.07,0-.11h0l0-.09c.39-.78.87-2,.87-2,.22.28,1.37,1.62,1.54,1.2A57.6,57.6,0,0,0,347,84.27a.1.1,0,0,0-.2-.06c-1.46,3.28-2.33,6.81-3.75,10.13a6.73,6.73,0,0,0-1.4-1.26c-.12,0-.89,2.38-1.09,2.71l0,0A5.31,5.31,0,0,1,337.51,93C337.46,93,337.35,93,337.37,93.09Z" transform="translate(-34.46 -32.41)" style="fill:#263238"></path><path d="M339.9,95.73a4.58,4.58,0,0,1-2.24.51,2,2,0,0,1-1.15-.46c-.71-.59-.38-1.35.06-1.91a5.09,5.09,0,0,1,.82-.81A5.87,5.87,0,0,0,339.9,95.73Z" transform="translate(-34.46 -32.41)" style="fill:#263238"></path><path d="M337.66,96.24a2,2,0,0,1-1.15-.46c-.71-.59-.38-1.35.06-1.91A2.1,2.1,0,0,1,337.66,96.24Z" transform="translate(-34.46 -32.41)" style="fill:#ff9bbc"></path><path d="M324.72,81.3c1.74,1.72,4.75.18,6-.81s4.32-8.68,6.4-10,4.84-1.25,6.26.21,2.37,4.91,3.69,5.5,3.13-2,4-1.48c1.92,1.08,1.3,7,.47,9.26,0,0,5.1-9-3.65-15-8.54-5.82-14.88-1.27-17.17,1C326.33,74.31,324.72,81.3,324.72,81.3Z" transform="translate(-34.46 -32.41)" style="fill:#263238"></path><path d="M329.46,83.55s-1-6.39-3.7-6.27-3.66,8.22-1.6,10.42a2.87,2.87,0,0,0,4.13.32Z" transform="translate(-34.46 -32.41)" style="fill:#ad6359"></path><path d="M325.56,79.61s-.08,0-.05.06c1.41,1.6,1.53,3.7,1.34,5.73A1.58,1.58,0,0,0,324.92,84c-.06,0-.05.1,0,.12a1.78,1.78,0,0,1,1.47,1.41,8.49,8.49,0,0,1,.13,1.82c0,.2.33.26.36,0v0C328.05,85.07,327.87,81,325.56,79.61Z" transform="translate(-34.46 -32.41)" style="fill:#263238"></path><path d="M321.45,75.19s.32,10,.61,11.27,2.49,4,2.49,4,.84,11,1.16,11.42,2.27,1.77,2.5,1.37-.5-12.45-.5-12.45L335,79.09l-2-1.93-6.86,11.6s-1.57-2.81-1.73-3.39-.64-10.1-.64-10.1Z" transform="translate(-34.46 -32.41)" style="fill:#263238"></path><path d="M321.14,68.75l-2.71,2.36,1.49,2.12-1.28,3.15s3.78,3.05,5.19,3.54,12.26.06,12.26.06Z" transform="translate(-34.46 -32.41)" style="fill:#37474f"></path><polygon points="288.5 38.79 287.02 39.4 288.48 40.69 286.83 42.91 290.43 45.21 296.99 45.73 288.5 38.79" style="fill:#263238"></polygon><path d="M336,81c4.17.47,13.58,1.51,13.68,1.44s4.14,1.68,4.36,1.66S359.87,81,359.87,81s-2.16-9.39-6.78-13.56-16.53-7.16-19.44-6.64-15.33,6.48-15.36,6.84S333.07,80.73,336,81Z" transform="translate(-34.46 -32.41)" style="fill:#092D74"></path><path d="M326.5,64.39l3.94-1.64s4.84,1.3,5.67,1.64a24.18,24.18,0,0,1,3.49,3.07A43.26,43.26,0,0,0,334.74,65C334,64.91,326.5,64.39,326.5,64.39Z" transform="translate(-34.46 -32.41)" style="fill:#020100;opacity:0.1"></path><path d="M337.72,62.26s11.83,5.17,12.89,5.9c3.06,2.1,7.68,13.73,7.68,13.73s-7-12-8.42-12.81S337.72,62.26,337.72,62.26Z" transform="translate(-34.46 -32.41)" style="fill:#020100;opacity:0.1"></path><path d="M322.33,67.42s11.15,1.64,12.2,2c3.07,1.07,9.62,9.8,9.62,9.8s-8.61-8.53-10-8.86S322.33,67.42,322.33,67.42Z" transform="translate(-34.46 -32.41)" style="fill:#020100;opacity:0.1"></path><path d="M342.13,69.47s7,4.65,7.64,5.34c1.64,1.76,4.2,9,4.2,9s-5-7.16-5.74-8.09S342.13,69.47,342.13,69.47Z" transform="translate(-34.46 -32.41)" style="fill:#020100;opacity:0.1"></path><path d="M338.15,80.14a26.09,26.09,0,0,0,.91-4.56,13.91,13.91,0,0,0-3.4-2c-.29.06.23,3.59.52,4.79A5.27,5.27,0,0,0,338.15,80.14Z" transform="translate(-34.46 -32.41)" style="fill:#263238"></path><path d="M333.66,76.68c.37-.07-1-4.56-1.38-4.84-1.07-.72-2.86-1.4-2.91-1.16a30,30,0,0,0,2.13,4.73A11.23,11.23,0,0,0,333.66,76.68Z" transform="translate(-34.46 -32.41)" style="fill:#263238"></path><path d="M327,70.22a8.54,8.54,0,0,0-3-.71,32.14,32.14,0,0,0,4.33,4.25A8.42,8.42,0,0,0,327,70.22Z" transform="translate(-34.46 -32.41)" style="fill:#263238"></path><path d="M244.3,107.41c1.32,0,48.36,11.76,65.25,1.4,11.1-6.81-8.48-21.32-8.48-21.32l3.37-1s10.35,5,12.51,14.71c4.82,21.7-57.81,16.64-79.6,9.85Z" transform="translate(-34.46 -32.41)" style="fill:#263238"></path><path d="M236.74,112.29c3.8.88,14-10.13,29.89-15.38s38.38-8.86,38.6-10.39-12.76-12-16.47-13.43-18,1.62-18,1.62-6.22-3.95-9.47-3.47S228.83,81.4,228.07,82.33s-8.39,9.33-8.51,11.43S221.33,108.72,236.74,112.29Z" transform="translate(-34.46 -32.41)" style="fill:#37474f"></path><path d="M297.86,104.21c-4.11,16.1-8.69,54.68-4.09,63.61,5.28,10.24,32.23,28.83,41.43,33.59,3.82,2,18.43-24.1,17.6-28.63-.49-2.69-33.84-20.19-34-21.88s-4.74-21.76-7.72-42.06C308.6,92.15,301.22,91,297.86,104.21Z" transform="translate(-34.46 -32.41)" style="fill:#ad6359"></path><path d="M347,169.89S359.44,174,367.46,177c4.47,1.7,11.88,5.31,14.6,8.07,4.06,4.12,18.41,24,13.67,27.54-4.28,3.24-14.45-15.37-14.45-15.37s11.92,17.87,6,20.83-14.56-19.6-14.56-19.6,11.83,18.64,5.28,20.73c-5,1.58-14-18.4-14-18.4s10.05,16.08,5,17.93c-5.54,2-15-15.89-15-15.89-13.54,2.54-21-1.79-26-5.51C326.91,196.47,347,169.89,347,169.89Z" transform="translate(-34.46 -32.41)" style="fill:#ad6359"></path><path d="M377.56,190.84c1.47,2,3,4.11,4.27,6.28s2.5,4.4,3.58,6.68a42.92,42.92,0,0,1,3.36,9.28c-1.77-5.6-6.26-13.45-7.55-15.62s-2.46-4.41-3.75-6.58C377.44,190.83,377.52,190.79,377.56,190.84Z" transform="translate(-34.46 -32.41)" style="fill:#263238"></path><path d="M369.63,195.35c1.77,2.7,3.63,5.31,5.28,8.08s3,5.53,4.41,8.4c.11.22,0,.21-.16,0-1.57-2.81-3.23-5.28-4.82-8.07s-3.09-5.65-4.78-8.36A0,0,0,0,1,369.63,195.35Z" transform="translate(-34.46 -32.41)" style="fill:#263238"></path><path d="M362.13,198a72.43,72.43,0,0,1,7.13,13c.1.22-.1.18-.22,0-2.29-4.36-4.05-7.8-7.05-12.84C361.94,198,362.07,197.91,362.13,198Z" transform="translate(-34.46 -32.41)" style="fill:#263238"></path><path d="M395.25,205a63.49,63.49,0,0,0-11.59-17.71,22.16,22.16,0,0,0-2.49-2.45c-8.92-5.49-19.37-9.06-29.1-12.95q-6.09-3.44-12.11-7c-4-2.34-8-4.68-12-7.16-3.16-2.09-6.55-3.91-9.33-6.53a8.6,8.6,0,0,1-.78-2.6c-.89-4.57-1.63-9.15-2.32-13.74,1.18,5.31,1.81,10.87,3.52,16,2.77,2.48,6.17,4.24,9.31,6.22,7.85,4.69,16.32,9.51,24.06,13.84q6.65,2.55,13.2,5.33c5.64,2.58,11.73,4.69,16.64,8.6A60.07,60.07,0,0,1,395.25,205Z" transform="translate(-34.46 -32.41)" style="fill:#263238"></path><path d="M293,135.4c-.44,9.68-1.17,19.56.31,29.16.44,3.27,2.42,5.8,4.63,8.1a140.82,140.82,0,0,0,14.66,12.78c5.11,4,10.35,7.91,15.48,11.93-4.79-3.32-11.38-7.85-15.94-11.32a128.25,128.25,0,0,1-14.93-12.7c-2.29-2.4-4.38-5.26-4.79-8.62C291,155,292,145.11,293,135.4Z" transform="translate(-34.46 -32.41)" style="fill:#263238"></path><path d="M290.75,136.78,317.63,135s-3.11-20.93-7.48-33.88C306,88.7,300,90.57,297.59,99.26,295.44,107,290.75,136.78,290.75,136.78Z" transform="translate(-34.46 -32.41)" style="fill:#092D74"></path><path d="M312.85,109.54A164.35,164.35,0,0,1,317.63,135a163.18,163.18,0,0,1-4.78-25.46Z" transform="translate(-34.46 -32.41)" style="fill:#263238"></path><path d="M290.75,136.78c.39-4.83,1.05-9.62,1.78-14.4s1.82-9.47,1.77-14.33c.86,4.81,0,9.71-.78,14.48s-1.63,9.54-2.77,14.25Z" transform="translate(-34.46 -32.41)" style="fill:#263238"></path><path d="M293,111.28a6.85,6.85,0,0,1,1.1,4.56,27.3,27.3,0,0,1-1.1-4.56Z" transform="translate(-34.46 -32.41)" style="fill:#263238"></path><path d="M299.19,130.16l5-.4c1.64-.13,3.29-.27,4.93-.42s3.42-.34,5.12-.32a0,0,0,0,1,0,.06,37.58,37.58,0,0,1-4.83.75c-1.68.2-3.36.36-5,.52s-3.29.28-4.94.39a38.32,38.32,0,0,1-5.14.09c-.06,0-.09-.11,0-.12A44.06,44.06,0,0,1,299.19,130.16Z" transform="translate(-34.46 -32.41)" style="fill:#263238"></path></g><g id="freepik--Lines--inject-130"><path d="M324.76,286.26c14.13,3.72,28.17,8.13,41.89,13.15-14.13-3.72-28.17-8.13-41.89-13.15Z" transform="translate(-34.46 -32.41)" style="fill:#263238"></path><path d="M175.84,138.82C190,142.54,204,147,217.73,152c-14.13-3.72-28.17-8.12-41.89-13.15Z" transform="translate(-34.46 -32.41)" style="fill:#263238"></path><path d="M62.48,246.79c13.32,3.46,26.53,7.61,39.44,12.38-13.32-3.47-26.53-7.61-39.44-12.38Z" transform="translate(-34.46 -32.41)" style="fill:#263238"></path><path d="M150.71,141.08c13.29,3.46,26.48,7.6,39.37,12.36-13.3-3.46-26.49-7.6-39.37-12.36Z" transform="translate(-34.46 -32.41)" style="fill:#263238"></path><path d="M49.64,217.93c28.05,8.11,59,17.84,86.71,27.21-28.08-8.13-59-17.83-86.71-27.21Z" transform="translate(-34.46 -32.41)" style="fill:#263238"></path><path d="M243,395.68c19.29,5.35,38.5,11.38,57.39,18-19.29-5.35-38.5-11.38-57.39-18Z" transform="translate(-34.46 -32.41)" style="fill:#263238"></path></g></svg>
